<mxfile host="app.diagrams.net" modified="2022-04-26T05:57:50.500Z" agent="5.0 (Windows NT 10.0; Win64; x64) AppleWebKit/537.36 (KHTML, like Gecko) Chrome/100.0.4896.127 Safari/537.36 Edg/100.0.1185.50" etag="g2fXX4YbLD-pA36ib2iw" version="17.4.6" type="github">
  <diagram id="mlBulXDM5_Qn2xZ3q9j-" name="Page-1">
    <mxGraphModel dx="1038" dy="579" grid="1" gridSize="10" guides="1" tooltips="1" connect="1" arrows="1" fold="1" page="1" pageScale="1" pageWidth="850" pageHeight="1100" math="0" shadow="0">
      <root>
        <mxCell id="0" />
        <mxCell id="1" parent="0" />
        <mxCell id="Xgqy8y6TUbvfAUnmlRve-3" value="yes" style="edgeStyle=orthogonalEdgeStyle;rounded=0;orthogonalLoop=1;jettySize=auto;html=1;" edge="1" parent="1" source="Xgqy8y6TUbvfAUnmlRve-1" target="Xgqy8y6TUbvfAUnmlRve-2">
          <mxGeometry relative="1" as="geometry" />
        </mxCell>
        <mxCell id="Xgqy8y6TUbvfAUnmlRve-5" value="no" style="edgeStyle=orthogonalEdgeStyle;rounded=0;orthogonalLoop=1;jettySize=auto;html=1;" edge="1" parent="1" source="Xgqy8y6TUbvfAUnmlRve-1" target="Xgqy8y6TUbvfAUnmlRve-4">
          <mxGeometry relative="1" as="geometry" />
        </mxCell>
        <mxCell id="Xgqy8y6TUbvfAUnmlRve-1" value="try" style="rounded=1;whiteSpace=wrap;html=1;" vertex="1" parent="1">
          <mxGeometry x="320" y="70" width="120" height="60" as="geometry" />
        </mxCell>
        <mxCell id="Xgqy8y6TUbvfAUnmlRve-2" value="delete the simulation" style="rounded=1;whiteSpace=wrap;html=1;" vertex="1" parent="1">
          <mxGeometry x="320" y="160" width="120" height="60" as="geometry" />
        </mxCell>
        <mxCell id="Xgqy8y6TUbvfAUnmlRve-4" value="catch any exception" style="whiteSpace=wrap;html=1;rounded=1;" vertex="1" parent="1">
          <mxGeometry x="520" y="70" width="120" height="60" as="geometry" />
        </mxCell>
      </root>
    </mxGraphModel>
  </diagram>
</mxfile>
